<svg version="1.1" viewBox="0.0 0.0 671.0 290.0" fill="none" stroke="none" stroke-linecap="square" stroke-miterlimit="10" xmlns:xlink="http://www.w3.org/1999/xlink" xmlns="http://www.w3.org/2000/svg"><clipPath id="p.0"><path d="m0 0l671.0 0l0 290.0l-671.0 0l0 -290.0z" clip-rule="nonzero"/></clipPath><g clip-path="url(#p.0)"><path fill="#000000" fill-opacity="0.0" d="m0 0l671.0 0l0 290.0l-671.0 0z" fill-rule="evenodd"/><path fill="#000000" fill-opacity="0.0" d="m37.608925 140.98688l607.2756 0l0 130.04724l-607.2756 0z" fill-rule="evenodd"/><path fill="#000000" d="m131.07281 229.27473l7.75 -9.703125q5.6875 4.9375 10.953125 7.234375q5.28125 2.28125 11.15625 2.28125q6.078125 0 9.703125 -2.234375q3.640625 -2.25 3.640625 -5.984375q0 -3.359375 -2.46875 -5.21875q-2.46875 -1.875 -8.25 -2.796875l-12.984375 -2.25q-8.390625 -1.390625 -12.734375 -5.875q-4.34375 -4.484375 -4.34375 -11.578125q0 -9.140625 6.953125 -14.453125q6.953125 -5.328125 18.8125 -5.328125q7.09375 0 14.328125 2.4375q7.234375 2.421875 12.640625 6.71875l-7.28125 10.078125q-5.21875 -4.015625 -10.265625 -5.921875q-5.046875 -1.921875 -10.359375 -1.921875q-5.40625 0 -8.6875 2.015625q-3.265625 2.0 -3.265625 5.359375q0 2.984375 2.140625 4.671875q2.15625 1.671875 7.203125 2.421875l12.3125 2.046875q9.703125 1.59375 14.609375 6.21875q4.90625 4.609375 4.90625 12.171875q0 9.515625 -7.515625 15.21875q-7.515625 5.6875 -20.015625 5.6875q-7.84375 0 -15.453125 -2.984375q-7.609375 -3.0 -13.484375 -8.3125zm108.26053 4.296875q-4.484375 3.640625 -9.203125 5.328125q-4.703125 1.671875 -10.484375 1.671875q-5.515625 0 -10.328125 -1.953125q-4.796875 -1.96875 -8.296875 -5.328125q-3.5 -3.359375 -5.515625 -7.984375q-2.0 -4.625 -2.0 -9.9375q0 -5.21875 1.90625 -9.84375q1.921875 -4.625 5.28125 -8.03125q3.359375 -3.40625 7.96875 -5.359375q4.625 -1.96875 9.859375 -1.96875q5.125 0 9.5625 2.015625q4.4375 2.0 7.65625 5.453125q3.21875 3.453125 5.03125 8.265625q1.828125 4.796875 1.828125 10.40625l0 3.359375l-36.21875 0q1.3125 4.5625 5.046875 7.375q3.734375 2.796875 8.765625 2.796875q3.1875 0 5.984375 -1.03125q2.796875 -1.03125 4.75 -2.890625l8.40625 7.65625zm-21.09375 -32.859375q-4.390625 0 -7.5625 2.671875q-3.171875 2.65625 -4.390625 7.125l23.8125 0q-1.21875 -4.28125 -4.4375 -7.03125q-3.21875 -2.765625 -7.421875 -2.765625zm47.409943 39.765625q-7.84375 0 -12.796875 -4.15625q-4.9375 -4.15625 -4.9375 -10.78125q0 -6.90625 5.3125 -10.828125q5.328125 -3.921875 14.65625 -3.921875q3.0 0 5.984375 0.46875q2.984375 0.46875 5.875 1.40625l0 -3.453125q0 -4.203125 -2.609375 -6.34375q-2.609375 -2.15625 -7.65625 -2.15625q-3.078125 0 -6.671875 0.984375q-3.59375 0.984375 -8.171875 3.03125l-4.65625 -9.421875q5.6875 -2.609375 11.046875 -3.921875q5.375 -1.3125 10.59375 -1.3125q9.8125 0 15.265625 4.71875q5.453125 4.71875 5.453125 13.296875l0 31.546875l-12.59375 0l0 -3.359375q-3.078125 2.140625 -6.484375 3.171875q-3.40625 1.03125 -7.609375 1.03125zm-5.5 -15.21875q0 2.796875 2.421875 4.4375q2.421875 1.625 6.4375 1.625q3.171875 0 5.828125 -0.78125q2.671875 -0.796875 4.90625 -2.296875l0 -7.28125q-2.328125 -0.921875 -4.90625 -1.34375q-2.5625 -0.421875 -5.359375 -0.421875q-4.390625 0 -6.859375 1.640625q-2.46875 1.625 -2.46875 4.421875zm41.906525 14.375l0 -48.625l12.78125 0l0 5.328125q2.328125 -3.1875 5.640625 -4.8125q3.3125 -1.640625 7.328125 -1.640625q1.875 0.09375 3.125 0.328125q1.265625 0.234375 2.203125 0.796875l0 11.203125q-1.40625 -0.65625 -3.09375 -0.984375q-1.671875 -0.328125 -3.453125 -0.328125q-3.71875 0 -6.859375 1.875q-3.125 1.859375 -4.890625 5.40625l0 31.453125l-12.78125 0zm59.44815 -10.265625q3.265625 0 6.109375 -1.296875q2.84375 -1.3125 5.453125 -4.109375l7.65625 7.921875q-3.734375 4.109375 -8.96875 6.40625q-5.21875 2.28125 -10.8125 2.28125q-5.328125 0 -10.046875 -1.953125q-4.703125 -1.96875 -8.109375 -5.328125q-3.40625 -3.359375 -5.375 -7.984375q-1.953125 -4.625 -1.953125 -9.9375q0 -5.3125 1.953125 -9.9375q1.96875 -4.625 5.375 -8.03125q3.40625 -3.40625 8.109375 -5.359375q4.71875 -1.96875 10.046875 -1.96875q5.78125 0 11.09375 2.296875q5.328125 2.28125 9.0625 6.390625l-7.84375 8.296875q-2.609375 -2.890625 -5.59375 -4.375q-2.984375 -1.5 -6.4375 -1.5q-5.515625 0 -9.296875 4.109375q-3.765625 4.109375 -3.765625 10.078125q0 5.96875 3.859375 9.984375q3.875 4.015625 9.484375 4.015625zm25.85373 10.265625l0 -65.328125l12.78125 -2.796875l0 23.328125q2.796875 -2.328125 6.203125 -3.546875q3.40625 -1.21875 7.421875 -1.21875q8.390625 0 13.796875 5.421875q5.421875 5.40625 5.421875 13.90625l0 30.234375l-12.78125 0l0 -28.375q0 -4.5625 -2.75 -7.359375q-2.75 -2.8125 -7.328125 -2.8125q-3.171875 0 -5.75 1.265625q-2.5625 1.25 -4.234375 3.59375l0 33.6875l-12.78125 0zm55.34366 19.500015l0 -68.125015l12.59375 0l0 4.015625q2.890625 -2.328125 6.4375 -3.5q3.546875 -1.171875 7.375 -1.171875q5.125 0 9.65625 1.96875q4.53125 1.953125 7.890625 5.3125q3.359375 3.359375 5.265625 7.9375q1.921875 4.578125 1.921875 9.796875q0 5.234375 -1.96875 9.8125q-1.953125 4.5625 -5.3125 7.921875q-3.359375 3.359375 -7.984375 5.28125q-4.625 1.90625 -9.84375 1.90625q-3.546875 0 -6.953125 -0.984375q-3.40625 -0.984375 -6.296875 -2.84375l0 22.67189l-12.78125 0zm24.34375 -57.85939q-3.453125 0 -6.4375 1.171875q-2.984375 1.15625 -5.125 3.40625l0 19.125q2.046875 2.0625 5.078125 3.28125q3.03125 1.203125 6.484375 1.203125q5.984375 0 10.078125 -4.0625q4.109375 -4.0625 4.109375 -10.03125q0 -5.96875 -4.15625 -10.03125q-4.140625 -4.0625 -10.03125 -4.0625zm78.59119 32.296875q-4.484375 3.640625 -9.203125 5.328125q-4.703125 1.671875 -10.484375 1.671875q-5.515625 0 -10.328125 -1.953125q-4.7969055 -1.96875 -8.2969055 -5.328125q-3.5 -3.359375 -5.515625 -7.984375q-2.0 -4.625 -2.0 -9.9375q0 -5.21875 1.90625 -9.84375q1.921875 -4.625 5.28125 -8.03125q3.359375 -3.40625 7.9687805 -5.359375q4.625 -1.96875 9.859375 -1.96875q5.125 0 9.5625 2.015625q4.4375 2.0 7.65625 5.453125q3.21875 3.453125 5.03125 8.265625q1.828125 4.796875 1.828125 10.40625l0 3.359375l-36.21875 0q1.3125 4.5625 5.046875 7.375q3.734375 2.796875 8.765625 2.796875q3.1875 0 5.984375 -1.03125q2.796875 -1.03125 4.75 -2.890625l8.40625 7.65625zm-21.09375 -32.859375q-4.390625 0 -7.5625 2.671875q-3.171875 2.65625 -4.390625 7.125l23.8125 0q-1.21875 -4.28125 -4.4375 -7.03125q-3.21875 -2.765625 -7.421875 -2.765625z" fill-rule="nonzero"/><path fill="#000000" d="m341.24734 83.86296l52.877747 30.581726l-52.877747 30.581726z" fill-rule="evenodd"/><path stroke="#ffffff" stroke-width="1.0" stroke-linejoin="round" stroke-linecap="butt" d="m341.24734 83.86296l52.877747 30.581726l-52.877747 30.581726z" fill-rule="evenodd"/><path fill="#000000" d="m394.27707 114.44604l-52.877747 -30.581726l52.877747 -30.581726z" fill-rule="evenodd"/><path stroke="#ffffff" stroke-width="1.0" stroke-linejoin="round" stroke-linecap="butt" d="m394.27707 114.44604l-52.877747 -30.581726l52.877747 -30.581726z" fill-rule="evenodd"/><path fill="#000000" d="m341.0941 145.02641l-52.877747 -30.581726l52.877747 -30.581726z" fill-rule="evenodd"/><path stroke="#ffffff" stroke-width="1.0" stroke-linejoin="round" stroke-linecap="butt" d="m341.0941 145.02641l-52.877747 -30.581726l52.877747 -30.581726z" fill-rule="evenodd"/><path fill="#000000" d="m341.24783 22.693424l52.877747 30.58173l-52.877747 30.581726z" fill-rule="evenodd"/><path stroke="#ffffff" stroke-width="1.0" stroke-linejoin="round" stroke-linecap="butt" d="m341.24783 22.693424l52.877747 30.58173l-52.877747 30.581726z" fill-rule="evenodd"/><path fill="#000000" d="m341.0942 83.85688l-52.877747 -30.58173l52.877747 -30.581726z" fill-rule="evenodd"/><path stroke="#ffffff" stroke-width="1.0" stroke-linejoin="round" stroke-linecap="butt" d="m341.0942 83.85688l-52.877747 -30.58173l52.877747 -30.581726z" fill-rule="evenodd"/><path fill="#000000" d="m288.2165 53.291004l52.877747 30.58173l-52.877747 30.581726z" fill-rule="evenodd"/><path stroke="#ffffff" stroke-width="1.0" stroke-linejoin="round" stroke-linecap="butt" d="m288.2165 53.291004l52.877747 30.58173l-52.877747 30.581726z" fill-rule="evenodd"/><defs><linearGradient id="p.1" gradientUnits="userSpaceOnUse" gradientTransform="matrix(0.0 6.668778372924023 -6.668778372924023 0.0 0.0 0.0)" spreadMethod="pad" x1="12.835632656175699" y1="-58.32160379549141" x2="12.835608057668209" y2="-51.65282542261276"><stop offset="0.0" stop-color="#1957c6"/><stop offset="1.0" stop-color="#2e86ce"/></linearGradient></defs><path fill="url(#p.1)" d="m344.46124 85.597984l44.472443 25.732285l-44.472443 25.732292z" fill-rule="evenodd"/><path stroke="#2e86ce" stroke-width="1.0" stroke-linejoin="round" stroke-linecap="butt" d="m344.46124 85.597984l44.472443 25.732285l-44.472443 25.732292z" fill-rule="evenodd"/><defs><linearGradient id="p.2" gradientUnits="userSpaceOnUse" gradientTransform="matrix(0.0 -6.668781447734005 6.668781447734005 0.0 0.0 0.0)" spreadMethod="pad" x1="-16.69348806520646" y1="51.649935881972894" x2="-16.693511126296595" y2="58.318717329667024"><stop offset="0.0" stop-color="#1957c6"/><stop offset="1.0" stop-color="#2e86ce"/></linearGradient></defs><path fill="url(#p.2)" d="m388.9148 111.325226l-44.472443 -25.732285l44.472443 -25.732285z" fill-rule="evenodd"/><path stroke="#2e86ce" stroke-width="1.0" stroke-linejoin="round" stroke-linecap="butt" d="m388.9148 111.325226l-44.472443 -25.732285l44.472443 -25.732285z" fill-rule="evenodd"/><defs><linearGradient id="p.3" gradientUnits="userSpaceOnUse" gradientTransform="matrix(0.0 -6.668779910327818 6.668779910327818 0.0 0.0 0.0)" spreadMethod="pad" x1="-20.530440022825587" y1="44.03999845125119" x2="-20.530463083921042" y2="50.70877836153914"><stop offset="0.0" stop-color="#53914b"/><stop offset="1.0" stop-color="#6eb934"/></linearGradient></defs><path fill="url(#p.3)" d="m338.16568 136.91298l-44.472443 -25.732277l44.472443 -25.732285z" fill-rule="evenodd"/><path stroke="#6eb934" stroke-width="1.0" stroke-linejoin="round" stroke-linecap="butt" d="m338.16568 136.91298l-44.472443 -25.732277l44.472443 -25.732285z" fill-rule="evenodd"/><defs><linearGradient id="p.4" gradientUnits="userSpaceOnUse" gradientTransform="matrix(0.0 6.668781447736751 -6.668781447736751 0.0 0.0 0.0)" spreadMethod="pad" x1="8.956285542698728" y1="-50.71109430392614" x2="8.95626094420258" y2="-44.04231285623475"><stop offset="0.0" stop-color="#53914b"/><stop offset="1.0" stop-color="#6eb934"/></linearGradient></defs><path fill="url(#p.4)" d="m293.7086 59.72751l44.472443 25.732285l-44.472443 25.732285z" fill-rule="evenodd"/><path stroke="#6eb934" stroke-width="1.0" stroke-linejoin="round" stroke-linecap="butt" d="m293.7086 59.72751l44.472443 25.732285l-44.472443 25.732285z" fill-rule="evenodd"/><defs><radialGradient id="p.5" gradientUnits="userSpaceOnUse" gradientTransform="matrix(0.0 5.831708358922811 -5.831708358922811 0.0 0.0 0.0)" spreadMethod="pad" cx="9.078330588488454" cy="-62.31131643927137" fx="9.078330588488454" fy="-62.31131643927137" r="5.8317084312438965"><stop offset="0.0" stop-color="#ef9a19"/><stop offset="1.0" stop-color="#facd11"/></radialGradient></defs><path fill="url(#p.5)" d="m341.1452 27.209892l44.472443 25.732285l-44.472443 25.732285z" fill-rule="evenodd"/><path stroke="#facd11" stroke-width="1.0" stroke-linejoin="round" stroke-linecap="butt" d="m341.1452 27.209892l44.472443 25.732285l-44.472443 25.732285z" fill-rule="evenodd"/><defs><radialGradient id="p.6" gradientUnits="userSpaceOnUse" gradientTransform="matrix(0.0 -5.831708358922811 5.831708358922811 0.0 0.0 0.0)" spreadMethod="pad" cx="-9.077156673172874" cy="54.68010433587775" fx="-9.077156673172874" fy="54.68010433587775" r="5.8317084312438965"><stop offset="0.0" stop-color="#ef9a19"/><stop offset="1.0" stop-color="#facd11"/></radialGradient></defs><path fill="url(#p.6)" d="m341.11465 78.66761l-44.472443 -25.73228l44.472443 -25.732283z" fill-rule="evenodd"/><path stroke="#facd11" stroke-width="1.0" stroke-linejoin="round" stroke-linecap="butt" d="m341.11465 78.66761l-44.472443 -25.73228l44.472443 -25.732283z" fill-rule="evenodd"/></g></svg>